<?xml version="1.0" encoding="UTF-8" standalone="no"?><!DOCTYPE svg PUBLIC "-//W3C//DTD SVG 1.1//EN" "http://www.w3.org/Graphics/SVG/1.1/DTD/svg11.dtd"><svg width="100%" height="100%" viewBox="0 0 2192 388" version="1.1" xmlns="http://www.w3.org/2000/svg" xmlns:xlink="http://www.w3.org/1999/xlink" xml:space="preserve" xmlns:serif="http://www.serif.com/" style="fill-rule:evenodd;clip-rule:evenodd;stroke-linejoin:round;stroke-miterlimit:2;"><g transform="matrix(1.98013,0,0,1.98013,-192.021,-369.076)"><g transform="matrix(202.007,0,0,202.007,80,340)"><path d="M0.315,-0l-0.176,-0l0,-0.082l0.17,-0c0.059,-0 0.108,-0.011 0.147,-0.034c0.039,-0.023 0.068,-0.055 0.087,-0.097c0.02,-0.043 0.029,-0.093 0.029,-0.152c0,-0.059 -0.009,-0.109 -0.028,-0.15c-0.019,-0.042 -0.048,-0.074 -0.085,-0.097c-0.038,-0.022 -0.085,-0.034 -0.141,-0.034l-0.183,0l0,-0.082l0.189,0c0.071,0 0.132,0.015 0.182,0.044c0.05,0.029 0.089,0.07 0.116,0.125c0.027,0.054 0.04,0.119 0.04,0.194c0,0.076 -0.013,0.141 -0.04,0.195c-0.027,0.055 -0.067,0.097 -0.119,0.126c-0.051,0.029 -0.114,0.044 -0.188,0.044Zm-0.134,-0.728l-0,0.728l-0.093,-0l-0,-0.728l0.093,0Z" style="fill:#f5f4f1;fill-rule:nonzero;"/></g><g transform="matrix(202.007,0,0,202.007,225.785,340)"><path d="M0.307,0.012c-0.053,-0 -0.099,-0.012 -0.137,-0.035c-0.038,-0.024 -0.068,-0.057 -0.088,-0.099c-0.021,-0.042 -0.031,-0.091 -0.031,-0.147c-0,-0.056 0.01,-0.105 0.03,-0.148c0.02,-0.042 0.049,-0.076 0.086,-0.1c0.037,-0.024 0.08,-0.036 0.129,-0.036c0.029,0 0.058,0.005 0.086,0.015c0.028,0.009 0.054,0.025 0.077,0.046c0.023,0.021 0.041,0.049 0.055,0.084c0.013,0.035 0.02,0.078 0.02,0.128l0,0.037l-0.424,-0l0,-0.074l0.377,-0l-0.041,0.027c-0,-0.036 -0.006,-0.068 -0.017,-0.095c-0.011,-0.028 -0.028,-0.05 -0.05,-0.066c-0.022,-0.016 -0.05,-0.024 -0.083,-0.024c-0.032,0 -0.061,0.008 -0.084,0.025c-0.024,0.016 -0.041,0.037 -0.054,0.063c-0.012,0.025 -0.018,0.053 -0.018,0.083l-0,0.049c-0,0.04 0.007,0.075 0.021,0.103c0.014,0.028 0.033,0.049 0.058,0.064c0.026,0.014 0.055,0.022 0.088,0.022c0.022,-0 0.041,-0.003 0.059,-0.01c0.017,-0.006 0.032,-0.015 0.045,-0.028c0.013,-0.012 0.023,-0.028 0.029,-0.046l0.085,0.023c-0.008,0.027 -0.022,0.051 -0.043,0.072c-0.02,0.021 -0.045,0.037 -0.075,0.049c-0.029,0.012 -0.063,0.018 -0.1,0.018Z" style="fill:#f5f4f1;fill-rule:nonzero;"/></g><g transform="matrix(202.007,0,0,202.007,343.556,340)"><path d="M0.077,0.204l0,-0.75l0.085,0l0,0.088l0.01,-0c0.006,-0.01 0.015,-0.023 0.026,-0.037c0.011,-0.015 0.027,-0.028 0.048,-0.04c0.02,-0.012 0.049,-0.018 0.084,-0.018c0.046,0 0.086,0.012 0.12,0.034c0.035,0.023 0.062,0.056 0.082,0.098c0.02,0.042 0.03,0.092 0.03,0.15c-0,0.057 -0.01,0.108 -0.03,0.15c-0.019,0.042 -0.046,0.075 -0.081,0.098c-0.035,0.023 -0.075,0.035 -0.12,0.035c-0.035,-0 -0.063,-0.006 -0.084,-0.018c-0.021,-0.012 -0.037,-0.025 -0.049,-0.041c-0.011,-0.015 -0.02,-0.027 -0.026,-0.037l-0.007,-0l0,0.288l-0.088,0Zm0.24,-0.271c0.035,0 0.063,-0.009 0.086,-0.027c0.023,-0.019 0.04,-0.044 0.052,-0.075c0.011,-0.031 0.017,-0.065 0.017,-0.103c0,-0.038 -0.006,-0.072 -0.017,-0.103c-0.011,-0.03 -0.028,-0.054 -0.051,-0.072c-0.023,-0.018 -0.052,-0.027 -0.087,-0.027c-0.033,-0 -0.061,0.008 -0.084,0.025c-0.023,0.017 -0.04,0.041 -0.052,0.071c-0.011,0.03 -0.017,0.065 -0.017,0.106c0,0.04 0.006,0.076 0.018,0.106c0.011,0.031 0.029,0.056 0.052,0.073c0.023,0.017 0.051,0.026 0.083,0.026Z" style="fill:#f5f4f1;fill-rule:nonzero;"/></g><g transform="matrix(202.007,0,0,202.007,467.246,340)"><rect x="0.077" y="-0.728" width="0.088" height="0.728" style="fill:#f5f4f1;fill-rule:nonzero;"/></g><g transform="matrix(202.007,0,0,202.007,516.17,340)"><path d="M0.299,0.012c-0.049,-0 -0.093,-0.012 -0.13,-0.035c-0.037,-0.024 -0.066,-0.057 -0.087,-0.099c-0.021,-0.042 -0.031,-0.092 -0.031,-0.148c-0,-0.056 0.01,-0.106 0.031,-0.149c0.021,-0.042 0.05,-0.075 0.087,-0.099c0.037,-0.023 0.081,-0.035 0.13,-0.035c0.05,0 0.094,0.012 0.131,0.035c0.038,0.024 0.067,0.057 0.088,0.099c0.02,0.043 0.031,0.093 0.031,0.149c-0,0.056 -0.011,0.106 -0.031,0.148c-0.021,0.042 -0.05,0.075 -0.088,0.099c-0.037,0.023 -0.081,0.035 -0.131,0.035Zm0,-0.079c0.037,0 0.067,-0.009 0.091,-0.028c0.024,-0.019 0.041,-0.044 0.053,-0.075c0.011,-0.03 0.017,-0.064 0.017,-0.1c-0,-0.036 -0.006,-0.069 -0.017,-0.1c-0.012,-0.031 -0.029,-0.057 -0.053,-0.076c-0.024,-0.019 -0.054,-0.028 -0.091,-0.028c-0.036,-0 -0.066,0.009 -0.09,0.028c-0.023,0.019 -0.04,0.044 -0.052,0.075c-0.011,0.031 -0.017,0.065 -0.017,0.101c0,0.036 0.006,0.07 0.017,0.1c0.012,0.031 0.029,0.056 0.052,0.075c0.024,0.019 0.054,0.028 0.09,0.028Z" style="fill:#f5f4f1;fill-rule:nonzero;"/></g><g transform="matrix(202.007,0,0,202.007,633.35,340)"><path d="M0.068,0.198l0.023,-0.076l0.009,0.002c0.018,0.005 0.034,0.006 0.049,0.004c0.015,-0.002 0.028,-0.01 0.039,-0.022c0.012,-0.012 0.022,-0.032 0.031,-0.058l0.016,-0.045l-0.209,-0.549l0.097,0l0.116,0.324c0.012,0.034 0.023,0.067 0.031,0.1c0.008,0.034 0.017,0.066 0.027,0.097l-0.032,0c0.009,-0.031 0.018,-0.063 0.027,-0.097c0.008,-0.033 0.019,-0.067 0.031,-0.1l0.117,-0.324l0.096,0l-0.24,0.628c-0.011,0.029 -0.024,0.052 -0.04,0.071c-0.015,0.019 -0.033,0.033 -0.054,0.042c-0.02,0.009 -0.043,0.013 -0.069,0.013c-0.016,0 -0.029,-0.001 -0.041,-0.003c-0.011,-0.003 -0.019,-0.005 -0.024,-0.007Z" style="fill:#f5f4f1;fill-rule:nonzero;"/></g><g transform="matrix(202.007,0,0,202.007,740.075,340)"><path d="M0.048,-0.646l-0,-0.082l0.55,0l-0,0.082l-0.228,0l-0,0.646l-0.093,-0l-0,-0.646l-0.229,0Z" style="fill:#a68a3e;fill-rule:nonzero;"/></g><g transform="matrix(202.007,0,0,202.007,870.472,340)"><path d="M0.077,-0l0,-0.546l0.088,0l0,0.546l-0.088,-0Zm0.045,-0.635c-0.017,-0 -0.031,-0.006 -0.043,-0.017c-0.012,-0.012 -0.018,-0.025 -0.018,-0.041c-0,-0.017 0.006,-0.03 0.018,-0.042c0.012,-0.011 0.026,-0.016 0.043,-0.016c0.017,-0 0.031,0.005 0.043,0.016c0.012,0.012 0.018,0.025 0.018,0.042c0,0.016 -0.006,0.029 -0.018,0.041c-0.012,0.011 -0.026,0.017 -0.043,0.017Z" style="fill:#a68a3e;fill-rule:nonzero;"/></g><g transform="matrix(202.007,0,0,202.007,919.396,340)"><path d="M0.292,-0.546l-0,0.075l-0.282,0l-0,-0.075l0.282,0Zm-0.2,-0.13l0.088,0l-0,0.534c-0,0.025 0.005,0.043 0.015,0.054c0.01,0.011 0.026,0.017 0.049,0.017c0.006,-0 0.013,-0.001 0.021,-0.002c0.009,-0.002 0.017,-0.003 0.024,-0.004l0.018,0.074c-0.009,0.003 -0.019,0.006 -0.031,0.007c-0.011,0.002 -0.023,0.003 -0.034,0.003c-0.048,-0 -0.084,-0.013 -0.111,-0.038c-0.026,-0.024 -0.039,-0.059 -0.039,-0.104l-0,-0.541Z" style="fill:#a68a3e;fill-rule:nonzero;"/></g><g transform="matrix(202.007,0,0,202.007,986.468,340)"><path d="M0.23,0.013c-0.035,-0 -0.066,-0.007 -0.094,-0.02c-0.028,-0.013 -0.051,-0.032 -0.067,-0.057c-0.017,-0.025 -0.025,-0.055 -0.025,-0.091c-0,-0.032 0.006,-0.057 0.018,-0.076c0.013,-0.02 0.029,-0.035 0.05,-0.047c0.021,-0.011 0.044,-0.019 0.069,-0.025c0.025,-0.005 0.05,-0.01 0.075,-0.013c0.033,-0.004 0.059,-0.007 0.08,-0.01c0.02,-0.002 0.036,-0.006 0.046,-0.011c0.01,-0.006 0.014,-0.015 0.014,-0.029l0,-0.003c0,-0.022 -0.004,-0.042 -0.012,-0.058c-0.009,-0.015 -0.021,-0.027 -0.038,-0.036c-0.017,-0.008 -0.038,-0.013 -0.064,-0.013c-0.026,0 -0.048,0.004 -0.067,0.013c-0.018,0.008 -0.033,0.018 -0.045,0.03c-0.011,0.012 -0.02,0.025 -0.026,0.037l-0.084,-0.027c0.014,-0.034 0.032,-0.06 0.056,-0.078c0.024,-0.019 0.05,-0.032 0.079,-0.04c0.028,-0.008 0.057,-0.012 0.085,-0.012c0.018,0 0.039,0.002 0.062,0.007c0.023,0.004 0.046,0.013 0.067,0.026c0.022,0.013 0.04,0.032 0.054,0.058c0.014,0.025 0.021,0.059 0.021,0.102l0,0.36l-0.086,0l-0,-0.074l-0.006,-0c-0.006,0.012 -0.016,0.026 -0.03,0.039c-0.013,0.014 -0.031,0.025 -0.053,0.034c-0.022,0.009 -0.048,0.014 -0.079,0.014Zm0.015,-0.078c0.033,0 0.06,-0.006 0.083,-0.019c0.022,-0.013 0.039,-0.029 0.051,-0.05c0.012,-0.02 0.017,-0.041 0.017,-0.063l0,-0.076c-0.003,0.004 -0.011,0.008 -0.023,0.012c-0.012,0.003 -0.026,0.006 -0.041,0.009c-0.016,0.002 -0.031,0.004 -0.045,0.006c-0.015,0.002 -0.026,0.003 -0.035,0.004c-0.021,0.003 -0.04,0.007 -0.059,0.014c-0.018,0.006 -0.033,0.015 -0.044,0.028c-0.011,0.012 -0.017,0.028 -0.017,0.049c0,0.019 0.005,0.035 0.015,0.047c0.01,0.013 0.023,0.023 0.04,0.029c0.017,0.007 0.036,0.01 0.058,0.01Z" style="fill:#a68a3e;fill-rule:nonzero;"/></g><g transform="matrix(202.007,0,0,202.007,1099.9,340)"><path d="M0.165,-0.327l0,0.327l-0.088,-0l0,-0.546l0.085,0l0,0.132l-0.012,0c0.017,-0.05 0.04,-0.086 0.071,-0.107c0.031,-0.021 0.067,-0.032 0.108,-0.032c0.037,0 0.069,0.008 0.097,0.023c0.027,0.015 0.049,0.038 0.064,0.068c0.016,0.031 0.024,0.069 0.024,0.115l-0,0.347l-0.088,-0l-0,-0.339c-0,-0.042 -0.011,-0.075 -0.033,-0.099c-0.022,-0.024 -0.052,-0.036 -0.09,-0.036c-0.026,0 -0.05,0.006 -0.071,0.017c-0.02,0.012 -0.037,0.028 -0.049,0.05c-0.012,0.022 -0.018,0.049 -0.018,0.08Z" style="fill:#a68a3e;fill-rule:nonzero;"/></g></g></svg>